<svg width="255" height="248" viewBox="0 0 255 248" fill="none" xmlns="http://www.w3.org/2000/svg">
<g clip-path="url(#clip0_180_15022)">
<path d="M0 19.3515C0 14.4187 3.9988 10.4199 8.93157 10.4199H245.321C250.253 10.4199 254.252 14.4187 254.252 19.3515V66.0321C254.252 70.1004 251.486 73.6634 247.542 74.6611C162.624 96.1436 108.027 98.5907 6.85591 74.5903C2.84935 73.6398 0 70.0433 0 65.9255V19.3515Z" fill="url(#paint0_linear_180_15022)"/>
<ellipse cx="127.126" cy="15.7791" rx="127.126" ry="15.7791" fill="#D9D9D9"/>
<path d="M92.1013 47.9296V57.3604H90.6784V47.9296H92.1013ZM94.063 57.3604V50.2873H95.3846V51.4385H95.4721C95.6194 51.0486 95.8604 50.7447 96.195 50.5267C96.5296 50.3057 96.9303 50.1952 97.3969 50.1952C97.8697 50.1952 98.2657 50.3057 98.5849 50.5267C98.9073 50.7478 99.1452 51.0517 99.2987 51.4385H99.3724C99.5412 51.0609 99.8098 50.76 100.178 50.5359C100.547 50.3088 100.986 50.1952 101.495 50.1952C102.137 50.1952 102.66 50.3962 103.065 50.7984C103.474 51.2006 103.678 51.8069 103.678 52.6173V57.3604H102.301V52.7463C102.301 52.2674 102.171 51.9205 101.91 51.7056C101.649 51.4907 101.337 51.3832 100.975 51.3832C100.527 51.3832 100.178 51.5214 99.9296 51.7977C99.6809 52.0709 99.5566 52.4224 99.5566 52.8522V57.3604H98.1843V52.6588C98.1843 52.275 98.0646 51.9665 97.8251 51.7332C97.5857 51.4999 97.2741 51.3832 96.8904 51.3832C96.6294 51.3832 96.3884 51.4523 96.1674 51.5904C95.9494 51.7255 95.7729 51.9143 95.6378 52.1568C95.5058 52.3994 95.4398 52.6803 95.4398 52.9995V57.3604H94.063ZM105.523 60.0128V50.2873H106.868V51.4339H106.983C107.063 51.2865 107.178 51.1161 107.328 50.9227C107.479 50.7293 107.688 50.5605 107.955 50.4162C108.222 50.2688 108.575 50.1952 109.014 50.1952C109.585 50.1952 110.094 50.3395 110.543 50.628C110.991 50.9166 111.342 51.3326 111.597 51.8759C111.855 52.4193 111.984 53.0732 111.984 53.8376C111.984 54.602 111.857 55.2575 111.602 55.8039C111.347 56.3473 110.997 56.7663 110.552 57.061C110.107 57.3527 109.599 57.4985 109.028 57.4985C108.598 57.4985 108.246 57.4264 107.973 57.2821C107.703 57.1378 107.491 56.9689 107.338 56.7755C107.184 56.5821 107.066 56.4102 106.983 56.2598H106.9V60.0128H105.523ZM106.873 53.8238C106.873 54.3211 106.945 54.7571 107.089 55.1316C107.233 55.5061 107.442 55.7993 107.715 56.0111C107.988 56.2199 108.323 56.3243 108.719 56.3243C109.13 56.3243 109.474 56.2153 109.751 55.9973C110.027 55.7763 110.236 55.477 110.377 55.0994C110.521 54.7218 110.593 54.2966 110.593 53.8238C110.593 53.3572 110.523 52.9381 110.381 52.5667C110.243 52.1952 110.035 51.902 109.755 51.6871C109.479 51.4723 109.134 51.3648 108.719 51.3648C108.32 51.3648 107.982 51.4676 107.706 51.6733C107.433 51.879 107.226 52.1661 107.084 52.5344C106.943 52.9028 106.873 53.3326 106.873 53.8238ZM113.527 57.3604V50.2873H114.857V51.4109H114.931C115.06 51.0302 115.287 50.7309 115.613 50.5129C115.941 50.2919 116.313 50.1814 116.727 50.1814C116.813 50.1814 116.914 50.1844 117.031 50.1906C117.151 50.1967 117.244 50.2044 117.312 50.2136V51.5306C117.257 51.5152 117.158 51.4983 117.017 51.4799C116.876 51.4584 116.735 51.4477 116.593 51.4477C116.268 51.4477 115.978 51.5168 115.723 51.6549C115.471 51.79 115.272 51.9788 115.124 52.2213C114.977 52.4608 114.903 52.734 114.903 53.041V57.3604H113.527ZM121.298 57.5031C120.602 57.5031 120.001 57.3542 119.498 57.0564C118.998 56.7556 118.611 56.3335 118.338 55.7901C118.067 55.2436 117.932 54.6036 117.932 53.8699C117.932 53.1454 118.067 52.5068 118.338 51.9542C118.611 51.4016 118.991 50.9703 119.48 50.6603C119.971 50.3502 120.545 50.1952 121.202 50.1952C121.601 50.1952 121.988 50.2612 122.362 50.3932C122.737 50.5252 123.073 50.7324 123.371 51.0148C123.668 51.2973 123.903 51.6641 124.075 52.1154C124.247 52.5636 124.333 53.1085 124.333 53.7501V54.2382H118.711V53.2068H122.984C122.984 52.8445 122.91 52.5237 122.763 52.2443C122.615 51.9619 122.408 51.7393 122.141 51.5766C121.877 51.4139 121.567 51.3326 121.211 51.3326C120.824 51.3326 120.486 51.4277 120.198 51.6181C119.912 51.8053 119.691 52.0509 119.535 52.3549C119.381 52.6557 119.305 52.9827 119.305 53.3357V54.1415C119.305 54.6143 119.387 55.0165 119.553 55.348C119.722 55.6796 119.957 55.9328 120.258 56.1078C120.559 56.2797 120.91 56.3657 121.312 56.3657C121.573 56.3657 121.811 56.3289 122.026 56.2552C122.241 56.1784 122.427 56.0648 122.583 55.9144C122.74 55.764 122.86 55.5783 122.942 55.3572L124.246 55.5921C124.141 55.9758 123.954 56.312 123.684 56.6005C123.417 56.886 123.081 57.1086 122.675 57.2683C122.273 57.4248 121.814 57.5031 121.298 57.5031ZM131.161 52.0141L129.913 52.2351C129.861 52.0755 129.778 51.9235 129.664 51.7792C129.554 51.635 129.403 51.5168 129.213 51.4247C129.023 51.3326 128.785 51.2865 128.499 51.2865C128.109 51.2865 127.784 51.374 127.523 51.549C127.262 51.7209 127.132 51.9435 127.132 52.2167C127.132 52.4531 127.219 52.6434 127.394 52.7877C127.569 52.932 127.852 53.0502 128.241 53.1423L129.365 53.4002C130.016 53.5506 130.501 53.7824 130.82 54.0955C131.139 54.4086 131.299 54.8154 131.299 55.3158C131.299 55.7394 131.176 56.117 130.931 56.4486C130.688 56.7771 130.349 57.0349 129.913 57.2222C129.48 57.4095 128.978 57.5031 128.407 57.5031C127.615 57.5031 126.969 57.3343 126.469 56.9966C125.968 56.6558 125.661 56.1723 125.548 55.546L126.878 55.3434C126.961 55.6903 127.132 55.9528 127.39 56.1309C127.647 56.3058 127.984 56.3933 128.398 56.3933C128.849 56.3933 129.21 56.2997 129.48 56.1124C129.75 55.9221 129.885 55.6903 129.885 55.4171C129.885 55.1961 129.803 55.0103 129.637 54.8599C129.474 54.7095 129.224 54.5959 128.886 54.5191L127.689 54.2567C127.029 54.1062 126.541 53.8668 126.225 53.5383C125.911 53.2098 125.755 52.7939 125.755 52.2904C125.755 51.8729 125.872 51.5076 126.105 51.1944C126.338 50.8813 126.66 50.6372 127.072 50.4623C127.483 50.2842 127.954 50.1952 128.486 50.1952C129.25 50.1952 129.852 50.3609 130.291 50.6925C130.73 51.021 131.02 51.4615 131.161 52.0141ZM138.113 52.0141L136.865 52.2351C136.813 52.0755 136.73 51.9235 136.617 51.7792C136.506 51.635 136.356 51.5168 136.165 51.4247C135.975 51.3326 135.737 51.2865 135.452 51.2865C135.062 51.2865 134.736 51.374 134.475 51.549C134.214 51.7209 134.084 51.9435 134.084 52.2167C134.084 52.4531 134.171 52.6434 134.346 52.7877C134.521 52.932 134.804 53.0502 135.194 53.1423L136.317 53.4002C136.968 53.5506 137.453 53.7824 137.772 54.0955C138.092 54.4086 138.251 54.8154 138.251 55.3158C138.251 55.7394 138.129 56.117 137.883 56.4486C137.64 56.7771 137.301 57.0349 136.865 57.2222C136.432 57.4095 135.93 57.5031 135.359 57.5031C134.567 57.5031 133.921 57.3343 133.421 56.9966C132.92 56.6558 132.613 56.1723 132.5 55.546L133.831 55.3434C133.914 55.6903 134.084 55.9528 134.342 56.1309C134.6 56.3058 134.936 56.3933 135.35 56.3933C135.802 56.3933 136.162 56.2997 136.432 56.1124C136.703 55.9221 136.838 55.6903 136.838 55.4171C136.838 55.1961 136.755 55.0103 136.589 54.8599C136.426 54.7095 136.176 54.5959 135.838 54.5191L134.641 54.2567C133.981 54.1062 133.493 53.8668 133.177 53.5383C132.864 53.2098 132.707 52.7939 132.707 52.2904C132.707 51.8729 132.824 51.5076 133.057 51.1944C133.29 50.8813 133.613 50.6372 134.024 50.4623C134.435 50.2842 134.907 50.1952 135.438 50.1952C136.202 50.1952 136.804 50.3609 137.243 50.6925C137.682 51.021 137.972 51.4615 138.113 52.0141ZM139.765 57.3604V50.2873H141.142V57.3604H139.765ZM140.461 49.1959C140.221 49.1959 140.015 49.1161 139.843 48.9565C139.675 48.7938 139.59 48.6003 139.59 48.3762C139.59 48.1491 139.675 47.9557 139.843 47.796C140.015 47.6333 140.221 47.552 140.461 47.552C140.7 47.552 140.904 47.6333 141.073 47.796C141.245 47.9557 141.331 48.1491 141.331 48.3762C141.331 48.6003 141.245 48.7938 141.073 48.9565C140.904 49.1161 140.7 49.1959 140.461 49.1959ZM145.974 57.5031C145.311 57.5031 144.732 57.3511 144.238 57.0472C143.743 56.7433 143.36 56.3181 143.086 55.7717C142.813 55.2252 142.677 54.5867 142.677 53.856C142.677 53.1223 142.813 52.4807 143.086 51.9312C143.36 51.3817 143.743 50.955 144.238 50.6511C144.732 50.3471 145.311 50.1952 145.974 50.1952C146.637 50.1952 147.215 50.3471 147.71 50.6511C148.204 50.955 148.588 51.3817 148.861 51.9312C149.134 52.4807 149.271 53.1223 149.271 53.856C149.271 54.5867 149.134 55.2252 148.861 55.7717C148.588 56.3181 148.204 56.7433 147.71 57.0472C147.215 57.3511 146.637 57.5031 145.974 57.5031ZM145.978 56.3473C146.408 56.3473 146.764 56.2337 147.047 56.0065C147.329 55.7793 147.538 55.477 147.673 55.0994C147.811 54.7218 147.88 54.3058 147.88 53.8514C147.88 53.4002 147.811 52.9857 147.673 52.6081C147.538 52.2275 147.329 51.922 147.047 51.6918C146.764 51.4615 146.408 51.3464 145.978 51.3464C145.545 51.3464 145.186 51.4615 144.901 51.6918C144.618 51.922 144.408 52.2275 144.27 52.6081C144.135 52.9857 144.067 53.4002 144.067 53.8514C144.067 54.3058 144.135 54.7218 144.27 55.0994C144.408 55.477 144.618 55.7793 144.901 56.0065C145.186 56.2337 145.545 56.3473 145.978 56.3473ZM152.185 53.1607V57.3604H150.808V50.2873H152.129V51.4385H152.217C152.379 51.064 152.634 50.7631 152.981 50.5359C153.331 50.3088 153.772 50.1952 154.303 50.1952C154.785 50.1952 155.207 50.2965 155.569 50.4991C155.931 50.6986 156.212 50.9964 156.412 51.3924C156.611 51.7885 156.711 52.2781 156.711 52.8614V57.3604H155.334V53.0272C155.334 52.5145 155.201 52.1139 154.934 51.8253C154.667 51.5337 154.3 51.3878 153.833 51.3878C153.514 51.3878 153.23 51.4569 152.981 51.5951C152.736 51.7332 152.541 51.9358 152.396 52.2029C152.255 52.4669 152.185 52.7862 152.185 53.1607ZM163.858 52.0141L162.61 52.2351C162.558 52.0755 162.475 51.9235 162.361 51.7792C162.251 51.635 162.1 51.5168 161.91 51.4247C161.72 51.3326 161.482 51.2865 161.196 51.2865C160.806 51.2865 160.481 51.374 160.22 51.549C159.959 51.7209 159.829 51.9435 159.829 52.2167C159.829 52.4531 159.916 52.6434 160.091 52.7877C160.266 52.932 160.548 53.0502 160.938 53.1423L162.062 53.4002C162.713 53.5506 163.198 53.7824 163.517 54.0955C163.836 54.4086 163.996 54.8154 163.996 55.3158C163.996 55.7394 163.873 56.117 163.628 56.4486C163.385 56.7771 163.046 57.0349 162.61 57.2222C162.177 57.4095 161.675 57.5031 161.104 57.5031C160.312 57.5031 159.666 57.3343 159.166 56.9966C158.665 56.6558 158.358 56.1723 158.245 55.546L159.575 55.3434C159.658 55.6903 159.829 55.9528 160.086 56.1309C160.344 56.3058 160.681 56.3933 161.095 56.3933C161.546 56.3933 161.907 56.2997 162.177 56.1124C162.447 55.9221 162.582 55.6903 162.582 55.4171C162.582 55.1961 162.499 55.0103 162.334 54.8599C162.171 54.7095 161.921 54.5959 161.583 54.5191L160.386 54.2567C159.726 54.1062 159.238 53.8668 158.921 53.5383C158.608 53.2098 158.452 52.7939 158.452 52.2904C158.452 51.8729 158.568 51.5076 158.802 51.1944C159.035 50.8813 159.357 50.6372 159.769 50.4623C160.18 50.2842 160.651 50.1952 161.182 50.1952C161.947 50.1952 162.549 50.3609 162.988 50.6925C163.427 51.021 163.717 51.4615 163.858 52.0141ZM108.43 73.3604V72.3289L111.621 69.0226C111.962 68.6634 112.243 68.3487 112.464 68.0786C112.688 67.8053 112.855 67.5459 112.966 67.3003C113.076 67.0547 113.132 66.7938 113.132 66.5175C113.132 66.2044 113.058 65.9342 112.911 65.7071C112.763 65.4768 112.562 65.3003 112.307 65.1775C112.053 65.0516 111.766 64.9887 111.446 64.9887C111.109 64.9887 110.814 65.0578 110.562 65.1959C110.31 65.3341 110.117 65.529 109.982 65.7807C109.847 66.0325 109.779 66.3272 109.779 66.6649H108.421C108.421 66.0908 108.553 65.5889 108.817 65.1591C109.081 64.7293 109.443 64.3962 109.904 64.1598C110.364 63.9204 110.888 63.8006 111.474 63.8006C112.066 63.8006 112.588 63.9188 113.04 64.1552C113.494 64.3885 113.849 64.7078 114.103 65.113C114.358 65.5152 114.486 65.9695 114.486 66.4761C114.486 66.826 114.42 67.1683 114.288 67.503C114.159 67.8376 113.933 68.2106 113.611 68.6219C113.288 69.0302 112.84 69.526 112.266 70.1093L110.392 72.071V72.1401H114.638V73.3604H108.43ZM119.666 73.5169C118.938 73.5138 118.317 73.322 117.801 72.9413C117.285 72.5606 116.891 72.0065 116.618 71.2789C116.344 70.5514 116.208 69.6749 116.208 68.6496C116.208 67.6273 116.344 66.7539 116.618 66.0294C116.894 65.3049 117.29 64.7523 117.806 64.3716C118.324 63.991 118.945 63.8006 119.666 63.8006C120.387 63.8006 121.006 63.9925 121.522 64.3762C122.038 64.7569 122.432 65.3095 122.705 66.034C122.982 66.7554 123.12 67.6273 123.12 68.6496C123.12 69.678 122.983 70.556 122.71 71.2836C122.437 72.0081 122.042 72.5622 121.526 72.9459C121.011 73.3266 120.391 73.5169 119.666 73.5169ZM119.666 72.2874C120.305 72.2874 120.803 71.9758 121.163 71.3526C121.525 70.7294 121.706 69.8284 121.706 68.6496C121.706 67.8667 121.623 67.2052 121.457 66.6649C121.295 66.1215 121.06 65.7101 120.753 65.4308C120.449 65.1483 120.087 65.0071 119.666 65.0071C119.031 65.0071 118.532 65.3202 118.169 65.9465C117.807 66.5728 117.625 67.4738 117.621 68.6496C117.621 69.4355 117.703 70.1001 117.866 70.6435C118.031 71.1838 118.266 71.5936 118.57 71.873C118.874 72.1493 119.239 72.2874 119.666 72.2874ZM125.337 73.4478C125.085 73.4478 124.869 73.3588 124.688 73.1808C124.507 72.9996 124.416 72.7817 124.416 72.5269C124.416 72.2751 124.507 72.0602 124.688 71.8822C124.869 71.7011 125.085 71.6105 125.337 71.6105C125.589 71.6105 125.805 71.7011 125.986 71.8822C126.167 72.0602 126.258 72.2751 126.258 72.5269C126.258 72.6957 126.215 72.8507 126.129 72.992C126.046 73.1301 125.936 73.2406 125.797 73.3235C125.659 73.4064 125.506 73.4478 125.337 73.4478ZM131.045 73.4893C130.468 73.4893 129.949 73.3788 129.488 73.1577C129.031 72.9336 128.666 72.6266 128.392 72.2368C128.119 71.8469 127.973 71.4017 127.955 70.9013H129.336C129.37 71.3066 129.55 71.6397 129.875 71.9006C130.2 72.1615 130.59 72.292 131.045 72.292C131.407 72.292 131.728 72.2091 132.007 72.0434C132.29 71.8745 132.511 71.6427 132.67 71.348C132.833 71.0533 132.914 70.7172 132.914 70.3396C132.914 69.9558 132.831 69.6135 132.666 69.3127C132.5 69.0118 132.271 68.7754 131.979 68.6035C131.691 68.4316 131.359 68.3441 130.985 68.341C130.699 68.341 130.412 68.3902 130.124 68.4884C129.835 68.5866 129.602 68.7156 129.424 68.8752L128.121 68.6818L128.65 63.9296H133.835V65.1499H129.834L129.534 67.7885H129.59C129.774 67.6104 130.018 67.4615 130.322 67.3418C130.629 67.2221 130.957 67.1622 131.307 67.1622C131.881 67.1622 132.392 67.2988 132.841 67.572C133.292 67.8452 133.646 68.2182 133.904 68.691C134.165 69.1607 134.294 69.701 134.291 70.3119C134.294 70.9228 134.156 71.4677 133.877 71.9467C133.6 72.4256 133.217 72.8032 132.725 73.0795C132.237 73.3527 131.677 73.4893 131.045 73.4893ZM136.102 63.9296H137.829L140.831 71.2605H140.942L143.944 63.9296H145.671V73.3604H144.317V66.5359H144.23L141.448 73.3465H140.325L137.543 66.5313H137.456V73.3604H136.102V63.9296Z" fill="white"/>
<path d="M26.7949 115.507C26.7949 111.654 29.9181 108.531 33.7708 108.531H218.398C222.25 108.531 225.374 111.654 225.374 115.507V151.966C225.374 155.144 223.213 157.926 220.133 158.706C153.81 175.484 111.167 177.395 32.1496 158.65C29.0203 157.908 26.7949 155.099 26.7949 151.883V115.507Z" fill="url(#paint1_linear_180_15022)"/>
<ellipse cx="126.084" cy="112.717" rx="99.2893" ry="12.324" fill="#D9D9D9"/>
<path d="M98.9402 137.673V145.039H97.8289V137.673H98.9402ZM100.472 145.039V139.515H101.505V140.414H101.573C101.688 140.109 101.876 139.872 102.138 139.702C102.399 139.529 102.712 139.443 103.076 139.443C103.445 139.443 103.755 139.529 104.004 139.702C104.256 139.874 104.442 140.112 104.562 140.414H104.619C104.751 140.119 104.961 139.884 105.249 139.709C105.536 139.532 105.879 139.443 106.277 139.443C106.778 139.443 107.187 139.6 107.504 139.914C107.822 140.228 107.982 140.702 107.982 141.335V145.039H106.907V141.435C106.907 141.061 106.805 140.79 106.601 140.623C106.397 140.455 106.154 140.371 105.871 140.371C105.521 140.371 105.249 140.479 105.054 140.694C104.86 140.908 104.763 141.182 104.763 141.518V145.039H103.691V141.367C103.691 141.067 103.598 140.826 103.411 140.644C103.224 140.462 102.98 140.371 102.681 140.371C102.477 140.371 102.289 140.425 102.116 140.533C101.946 140.638 101.808 140.786 101.702 140.975C101.599 141.164 101.548 141.384 101.548 141.633V145.039H100.472ZM109.423 147.111V139.515H110.473V140.41H110.563C110.626 140.295 110.716 140.162 110.833 140.011C110.951 139.86 111.114 139.728 111.322 139.615C111.531 139.5 111.807 139.443 112.149 139.443C112.595 139.443 112.993 139.556 113.343 139.781C113.694 140.006 113.968 140.331 114.167 140.756C114.368 141.18 114.469 141.691 114.469 142.288C114.469 142.885 114.37 143.397 114.171 143.823C113.972 144.248 113.698 144.575 113.351 144.805C113.003 145.033 112.606 145.147 112.16 145.147C111.825 145.147 111.55 145.091 111.337 144.978C111.126 144.865 110.96 144.733 110.84 144.582C110.72 144.431 110.628 144.297 110.563 144.179H110.499V147.111H109.423ZM110.477 142.277C110.477 142.665 110.533 143.006 110.646 143.298C110.759 143.591 110.922 143.82 111.135 143.985C111.349 144.148 111.61 144.23 111.919 144.23C112.241 144.23 112.509 144.145 112.725 143.974C112.941 143.802 113.104 143.568 113.214 143.273C113.327 142.978 113.383 142.646 113.383 142.277C113.383 141.912 113.328 141.585 113.218 141.295C113.11 141.005 112.947 140.776 112.728 140.608C112.513 140.44 112.243 140.356 111.919 140.356C111.608 140.356 111.344 140.437 111.128 140.597C110.915 140.758 110.753 140.982 110.642 141.27C110.532 141.558 110.477 141.893 110.477 142.277ZM115.674 145.039V139.515H116.713V140.392H116.771C116.872 140.095 117.049 139.861 117.303 139.691C117.56 139.518 117.85 139.432 118.174 139.432C118.241 139.432 118.32 139.434 118.411 139.439C118.505 139.444 118.578 139.45 118.63 139.457V140.486C118.587 140.474 118.511 140.461 118.4 140.446C118.29 140.429 118.18 140.421 118.069 140.421C117.815 140.421 117.589 140.475 117.39 140.583C117.193 140.688 117.037 140.836 116.922 141.025C116.807 141.212 116.749 141.426 116.749 141.666V145.039H115.674ZM121.744 145.151C121.2 145.151 120.731 145.034 120.338 144.802C119.947 144.567 119.645 144.237 119.432 143.813C119.221 143.386 119.115 142.886 119.115 142.313C119.115 141.747 119.221 141.248 119.432 140.817C119.645 140.385 119.942 140.048 120.323 139.806C120.707 139.564 121.155 139.443 121.669 139.443C121.98 139.443 122.282 139.494 122.575 139.597C122.867 139.701 123.13 139.862 123.363 140.083C123.595 140.304 123.779 140.59 123.913 140.943C124.047 141.293 124.114 141.718 124.114 142.219V142.601H119.723V141.795H123.06C123.06 141.512 123.003 141.261 122.888 141.043C122.773 140.823 122.611 140.649 122.402 140.522C122.196 140.395 121.954 140.331 121.676 140.331C121.374 140.331 121.11 140.406 120.885 140.554C120.662 140.7 120.489 140.892 120.367 141.13C120.247 141.365 120.187 141.62 120.187 141.896V142.525C120.187 142.894 120.252 143.208 120.381 143.467C120.513 143.726 120.696 143.924 120.931 144.061C121.166 144.195 121.441 144.262 121.755 144.262C121.959 144.262 122.145 144.233 122.312 144.176C122.48 144.116 122.625 144.027 122.748 143.91C122.87 143.792 122.963 143.647 123.028 143.475L124.046 143.658C123.964 143.958 123.818 144.22 123.607 144.446C123.399 144.669 123.136 144.842 122.819 144.967C122.505 145.089 122.147 145.151 121.744 145.151ZM129.447 140.863L128.472 141.036C128.432 140.911 128.367 140.793 128.278 140.68C128.192 140.567 128.074 140.475 127.926 140.403C127.777 140.331 127.591 140.295 127.368 140.295C127.064 140.295 126.81 140.364 126.606 140.5C126.402 140.634 126.3 140.808 126.3 141.022C126.3 141.206 126.368 141.355 126.505 141.468C126.642 141.58 126.862 141.673 127.167 141.745L128.044 141.946C128.553 142.064 128.932 142.245 129.181 142.489C129.43 142.734 129.555 143.051 129.555 143.442C129.555 143.773 129.459 144.068 129.267 144.327C129.078 144.583 128.813 144.785 128.472 144.931C128.134 145.077 127.742 145.151 127.296 145.151C126.678 145.151 126.173 145.019 125.782 144.755C125.391 144.489 125.152 144.111 125.063 143.622L126.102 143.464C126.167 143.735 126.3 143.94 126.501 144.079C126.703 144.215 126.965 144.284 127.289 144.284C127.642 144.284 127.923 144.211 128.134 144.064C128.345 143.916 128.451 143.735 128.451 143.521C128.451 143.349 128.386 143.204 128.257 143.086C128.129 142.969 127.934 142.88 127.67 142.82L126.735 142.615C126.22 142.498 125.838 142.31 125.592 142.054C125.347 141.797 125.225 141.472 125.225 141.079C125.225 140.753 125.316 140.468 125.498 140.223C125.68 139.979 125.932 139.788 126.253 139.651C126.575 139.512 126.943 139.443 127.357 139.443C127.954 139.443 128.424 139.572 128.767 139.831C129.11 140.088 129.337 140.432 129.447 140.863ZM134.877 140.863L133.902 141.036C133.861 140.911 133.797 140.793 133.708 140.68C133.622 140.567 133.504 140.475 133.356 140.403C133.207 140.331 133.021 140.295 132.798 140.295C132.494 140.295 132.239 140.364 132.036 140.5C131.832 140.634 131.73 140.808 131.73 141.022C131.73 141.206 131.798 141.355 131.935 141.468C132.072 141.58 132.292 141.673 132.597 141.745L133.474 141.946C133.983 142.064 134.361 142.245 134.611 142.489C134.86 142.734 134.985 143.051 134.985 143.442C134.985 143.773 134.889 144.068 134.697 144.327C134.508 144.583 134.243 144.785 133.902 144.931C133.564 145.077 133.172 145.151 132.726 145.151C132.108 145.151 131.603 145.019 131.212 144.755C130.821 144.489 130.581 144.111 130.493 143.622L131.532 143.464C131.597 143.735 131.73 143.94 131.931 144.079C132.133 144.215 132.395 144.284 132.719 144.284C133.071 144.284 133.353 144.211 133.564 144.064C133.775 143.916 133.881 143.735 133.881 143.521C133.881 143.349 133.816 143.204 133.686 143.086C133.559 142.969 133.364 142.88 133.1 142.82L132.165 142.615C131.65 142.498 131.268 142.31 131.021 142.054C130.777 141.797 130.655 141.472 130.655 141.079C130.655 140.753 130.746 140.468 130.928 140.223C131.11 139.979 131.362 139.788 131.683 139.651C132.004 139.512 132.373 139.443 132.787 139.443C133.384 139.443 133.854 139.572 134.197 139.831C134.54 140.088 134.767 140.432 134.877 140.863ZM136.167 145.039V139.515H137.243V145.039H136.167ZM136.71 138.662C136.523 138.662 136.363 138.6 136.228 138.475C136.096 138.348 136.03 138.197 136.03 138.022C136.03 137.845 136.096 137.694 136.228 137.569C136.363 137.442 136.523 137.378 136.71 137.378C136.897 137.378 137.057 137.442 137.189 137.569C137.323 137.694 137.39 137.845 137.39 138.022C137.39 138.197 137.323 138.348 137.189 138.475C137.057 138.6 136.897 138.662 136.71 138.662ZM141.016 145.151C140.498 145.151 140.046 145.032 139.66 144.794C139.274 144.557 138.975 144.225 138.761 143.798C138.548 143.371 138.441 142.873 138.441 142.302C138.441 141.729 138.548 141.228 138.761 140.799C138.975 140.37 139.274 140.036 139.66 139.799C140.046 139.562 140.498 139.443 141.016 139.443C141.534 139.443 141.986 139.562 142.372 139.799C142.758 140.036 143.058 140.37 143.271 140.799C143.485 141.228 143.591 141.729 143.591 142.302C143.591 142.873 143.485 143.371 143.271 143.798C143.058 144.225 142.758 144.557 142.372 144.794C141.986 145.032 141.534 145.151 141.016 145.151ZM141.02 144.248C141.355 144.248 141.634 144.159 141.854 143.982C142.075 143.804 142.238 143.568 142.343 143.273C142.451 142.978 142.505 142.653 142.505 142.298C142.505 141.946 142.451 141.622 142.343 141.327C142.238 141.03 142.075 140.792 141.854 140.612C141.634 140.432 141.355 140.342 141.02 140.342C140.682 140.342 140.401 140.432 140.178 140.612C139.958 140.792 139.793 141.03 139.685 141.327C139.58 141.622 139.527 141.946 139.527 142.298C139.527 142.653 139.58 142.978 139.685 143.273C139.793 143.568 139.958 143.804 140.178 143.982C140.401 144.159 140.682 144.248 141.02 144.248ZM145.867 141.759V145.039H144.792V139.515H145.824V140.414H145.892C146.019 140.121 146.218 139.886 146.489 139.709C146.763 139.532 147.107 139.443 147.521 139.443C147.898 139.443 148.228 139.522 148.51 139.68C148.793 139.836 149.013 140.069 149.169 140.378C149.325 140.687 149.402 141.07 149.402 141.525V145.039H148.327V141.655C148.327 141.254 148.223 140.941 148.014 140.716C147.806 140.488 147.519 140.374 147.155 140.374C146.905 140.374 146.683 140.428 146.489 140.536C146.297 140.644 146.145 140.802 146.032 141.011C145.922 141.217 145.867 141.466 145.867 141.759ZM154.984 140.863L154.01 141.036C153.969 140.911 153.904 140.793 153.815 140.68C153.729 140.567 153.612 140.475 153.463 140.403C153.314 140.331 153.128 140.295 152.905 140.295C152.601 140.295 152.347 140.364 152.143 140.5C151.939 140.634 151.837 140.808 151.837 141.022C151.837 141.206 151.906 141.355 152.042 141.468C152.179 141.58 152.4 141.673 152.704 141.745L153.582 141.946C154.09 142.064 154.469 142.245 154.718 142.489C154.967 142.734 155.092 143.051 155.092 143.442C155.092 143.773 154.996 144.068 154.804 144.327C154.615 144.583 154.35 144.785 154.01 144.931C153.672 145.077 153.28 145.151 152.834 145.151C152.215 145.151 151.71 145.019 151.319 144.755C150.929 144.489 150.689 144.111 150.6 143.622L151.639 143.464C151.704 143.735 151.837 143.94 152.039 144.079C152.24 144.215 152.503 144.284 152.826 144.284C153.179 144.284 153.461 144.211 153.672 144.064C153.883 143.916 153.988 143.735 153.988 143.521C153.988 143.349 153.923 143.204 153.794 143.086C153.667 142.969 153.471 142.88 153.208 142.82L152.272 142.615C151.757 142.498 151.376 142.31 151.129 142.054C150.884 141.797 150.762 141.472 150.762 141.079C150.762 140.753 150.853 140.468 151.035 140.223C151.217 139.979 151.469 139.788 151.791 139.651C152.112 139.512 152.48 139.443 152.895 139.443C153.492 139.443 153.962 139.572 154.305 139.831C154.647 140.088 154.874 140.432 154.984 140.863ZM111.694 157.039V156.233L114.186 153.651C114.452 153.371 114.671 153.125 114.844 152.914C115.019 152.7 115.15 152.498 115.236 152.306C115.322 152.114 115.366 151.91 115.366 151.695C115.366 151.45 115.308 151.239 115.193 151.062C115.078 150.882 114.921 150.744 114.722 150.648C114.523 150.55 114.299 150.501 114.049 150.501C113.786 150.501 113.555 150.554 113.359 150.662C113.162 150.77 113.011 150.923 112.906 151.119C112.8 151.316 112.747 151.546 112.747 151.81H111.686C111.686 151.361 111.789 150.969 111.996 150.634C112.202 150.298 112.485 150.038 112.844 149.853C113.204 149.666 113.613 149.573 114.071 149.573C114.534 149.573 114.941 149.665 115.294 149.85C115.649 150.032 115.925 150.281 116.125 150.598C116.324 150.912 116.423 151.267 116.423 151.662C116.423 151.936 116.371 152.203 116.268 152.464C116.168 152.726 115.991 153.017 115.74 153.338C115.488 153.657 115.138 154.044 114.689 154.5L113.226 156.032V156.086H116.542V157.039H111.694ZM120.469 157.161C119.901 157.159 119.415 157.009 119.013 156.712C118.61 156.414 118.302 155.982 118.088 155.413C117.875 154.845 117.768 154.161 117.768 153.36C117.768 152.561 117.875 151.879 118.088 151.313C118.304 150.748 118.613 150.316 119.016 150.019C119.421 149.721 119.906 149.573 120.469 149.573C121.033 149.573 121.516 149.722 121.919 150.022C122.321 150.32 122.629 150.751 122.843 151.317C123.059 151.88 123.167 152.561 123.167 153.36C123.167 154.163 123.06 154.849 122.846 155.417C122.633 155.983 122.325 156.416 121.922 156.715C121.519 157.013 121.035 157.161 120.469 157.161ZM120.469 156.201C120.968 156.201 121.357 155.958 121.638 155.471C121.921 154.984 122.062 154.281 122.062 153.36C122.062 152.748 121.998 152.232 121.868 151.81C121.741 151.385 121.558 151.064 121.318 150.846C121.081 150.625 120.798 150.515 120.469 150.515C119.973 150.515 119.583 150.759 119.3 151.249C119.017 151.738 118.875 152.441 118.872 153.36C118.872 153.974 118.936 154.493 119.063 154.917C119.192 155.339 119.376 155.659 119.613 155.877C119.851 156.093 120.136 156.201 120.469 156.201ZM124.898 157.107C124.702 157.107 124.533 157.038 124.391 156.899C124.25 156.757 124.179 156.587 124.179 156.388C124.179 156.191 124.25 156.024 124.391 155.885C124.533 155.743 124.702 155.672 124.898 155.672C125.095 155.672 125.264 155.743 125.405 155.885C125.547 156.024 125.618 156.191 125.618 156.388C125.618 156.52 125.584 156.641 125.517 156.751C125.452 156.859 125.366 156.946 125.258 157.01C125.15 157.075 125.03 157.107 124.898 157.107ZM129.356 157.14C128.905 157.14 128.5 157.053 128.141 156.881C127.783 156.706 127.498 156.466 127.285 156.162C127.071 155.857 126.957 155.509 126.943 155.119H128.022C128.048 155.435 128.189 155.695 128.443 155.899C128.697 156.103 129.001 156.205 129.356 156.205C129.639 156.205 129.89 156.14 130.108 156.01C130.328 155.879 130.501 155.698 130.626 155.467C130.753 155.237 130.816 154.975 130.816 154.68C130.816 154.38 130.752 154.113 130.622 153.878C130.493 153.643 130.314 153.458 130.086 153.324C129.861 153.19 129.602 153.121 129.309 153.119C129.086 153.119 128.862 153.157 128.637 153.234C128.412 153.311 128.229 153.411 128.09 153.536L127.072 153.385L127.486 149.673H131.536V150.626H128.41L128.177 152.687H128.22C128.364 152.548 128.554 152.432 128.792 152.338C129.031 152.245 129.288 152.198 129.561 152.198C130.01 152.198 130.409 152.305 130.759 152.518C131.111 152.732 131.388 153.023 131.59 153.392C131.793 153.759 131.894 154.181 131.892 154.658C131.894 155.135 131.786 155.561 131.568 155.935C131.352 156.309 131.053 156.604 130.669 156.82C130.288 157.033 129.85 157.14 129.356 157.14ZM133.306 149.673H134.655L137 155.399H137.086L139.431 149.673H140.78V157.039H139.722V151.709H139.654L137.482 157.028H136.604L134.432 151.705H134.363V157.039H133.306V149.673Z" fill="white"/>
<path d="M44.3604 193.198C44.3604 190.075 46.8922 187.543 50.0153 187.543H199.683C202.807 187.543 205.338 190.075 205.338 193.198V222.753C205.338 225.329 203.587 227.585 201.09 228.217C147.325 241.818 112.757 243.368 48.7011 228.172C46.1644 227.57 44.3604 225.293 44.3604 222.686V193.198Z" fill="url(#paint2_linear_180_15022)"/>
<ellipse cx="124.849" cy="190.936" rx="80.489" ry="9.99044" fill="#D9D9D9"/>
<path d="M102.931 211.06V217.031H102.03V211.06H102.931ZM104.173 217.031V212.553H105.01V213.282H105.065C105.158 213.035 105.311 212.843 105.523 212.705C105.735 212.565 105.988 212.495 106.284 212.495C106.583 212.495 106.834 212.565 107.036 212.705C107.24 212.845 107.391 213.037 107.488 213.282H107.535C107.642 213.043 107.812 212.852 108.045 212.71C108.278 212.567 108.556 212.495 108.879 212.495C109.285 212.495 109.616 212.622 109.873 212.877C110.131 213.131 110.261 213.515 110.261 214.028V217.031H109.389V214.11C109.389 213.807 109.306 213.587 109.141 213.451C108.976 213.315 108.779 213.247 108.549 213.247C108.265 213.247 108.045 213.334 107.887 213.509C107.73 213.682 107.651 213.905 107.651 214.177V217.031H106.782V214.054C106.782 213.812 106.707 213.616 106.555 213.468C106.403 213.321 106.206 213.247 105.963 213.247C105.798 213.247 105.645 213.291 105.505 213.378C105.367 213.464 105.256 213.583 105.17 213.737C105.087 213.89 105.045 214.068 105.045 214.27V217.031H104.173ZM111.429 218.711V212.553H112.28V213.279H112.353C112.404 213.186 112.477 213.078 112.572 212.955C112.667 212.833 112.799 212.726 112.969 212.635C113.138 212.541 113.361 212.495 113.639 212.495C114.001 212.495 114.323 212.586 114.607 212.769C114.891 212.951 115.113 213.215 115.275 213.559C115.438 213.903 115.52 214.317 115.52 214.801C115.52 215.285 115.439 215.7 115.278 216.046C115.116 216.39 114.895 216.655 114.613 216.842C114.331 217.026 114.009 217.119 113.648 217.119C113.376 217.119 113.153 217.073 112.98 216.982C112.809 216.89 112.675 216.783 112.578 216.661C112.481 216.539 112.406 216.43 112.353 216.334H112.301V218.711H111.429ZM112.283 214.792C112.283 215.107 112.329 215.383 112.42 215.62C112.512 215.857 112.644 216.043 112.817 216.177C112.99 216.309 113.202 216.375 113.452 216.375C113.713 216.375 113.931 216.306 114.106 216.168C114.281 216.028 114.413 215.839 114.502 215.6C114.593 215.361 114.639 215.091 114.639 214.792C114.639 214.497 114.594 214.231 114.505 213.996C114.418 213.761 114.285 213.575 114.108 213.439C113.934 213.303 113.715 213.235 113.452 213.235C113.2 213.235 112.986 213.3 112.811 213.431C112.638 213.561 112.507 213.743 112.417 213.976C112.328 214.209 112.283 214.481 112.283 214.792ZM116.496 217.031V212.553H117.339V213.264H117.386C117.467 213.023 117.611 212.834 117.817 212.696C118.025 212.556 118.26 212.486 118.523 212.486C118.577 212.486 118.641 212.488 118.715 212.492C118.791 212.496 118.85 212.5 118.893 212.506V213.34C118.858 213.33 118.796 213.32 118.706 213.308C118.617 213.294 118.527 213.288 118.438 213.288C118.232 213.288 118.048 213.331 117.887 213.419C117.728 213.504 117.601 213.624 117.508 213.778C117.415 213.929 117.368 214.102 117.368 214.296V217.031H116.496ZM121.417 217.122C120.976 217.122 120.596 217.027 120.277 216.839C119.96 216.648 119.715 216.381 119.542 216.037C119.371 215.691 119.286 215.286 119.286 214.821C119.286 214.363 119.371 213.958 119.542 213.608C119.715 213.259 119.956 212.985 120.265 212.789C120.576 212.593 120.94 212.495 121.356 212.495C121.608 212.495 121.853 212.536 122.091 212.62C122.328 212.704 122.54 212.835 122.729 213.014C122.918 213.192 123.066 213.425 123.175 213.71C123.284 213.994 123.338 214.339 123.338 214.745V215.055H119.778V214.401H122.484C122.484 214.172 122.437 213.969 122.344 213.792C122.251 213.613 122.12 213.472 121.951 213.369C121.783 213.266 121.587 213.215 121.362 213.215C121.117 213.215 120.903 213.275 120.72 213.396C120.539 213.514 120.4 213.67 120.3 213.862C120.203 214.053 120.155 214.26 120.155 214.483V214.993C120.155 215.293 120.207 215.547 120.312 215.757C120.419 215.967 120.568 216.127 120.758 216.238C120.949 216.347 121.171 216.401 121.426 216.401C121.591 216.401 121.742 216.378 121.878 216.332C122.014 216.283 122.131 216.211 122.23 216.116C122.33 216.021 122.405 215.903 122.458 215.763L123.283 215.912C123.217 216.155 123.098 216.367 122.927 216.55C122.758 216.731 122.545 216.872 122.289 216.973C122.034 217.072 121.744 217.122 121.417 217.122ZM127.661 213.646L126.871 213.786C126.838 213.685 126.786 213.589 126.714 213.498C126.644 213.406 126.549 213.331 126.428 213.273C126.308 213.215 126.157 213.186 125.976 213.186C125.729 213.186 125.523 213.241 125.358 213.352C125.193 213.461 125.11 213.602 125.11 213.775C125.11 213.924 125.166 214.045 125.276 214.136C125.387 214.227 125.566 214.302 125.813 214.361L126.524 214.524C126.936 214.619 127.244 214.766 127.446 214.964C127.648 215.162 127.749 215.42 127.749 215.737C127.749 216.005 127.671 216.244 127.516 216.454C127.362 216.662 127.147 216.825 126.871 216.944C126.597 217.062 126.279 217.122 125.918 217.122C125.416 217.122 125.007 217.015 124.69 216.801C124.374 216.585 124.179 216.279 124.107 215.883L124.95 215.754C125.002 215.974 125.11 216.14 125.274 216.253C125.437 216.364 125.65 216.419 125.912 216.419C126.198 216.419 126.426 216.36 126.597 216.241C126.768 216.121 126.854 215.974 126.854 215.801C126.854 215.661 126.801 215.543 126.696 215.448C126.593 215.353 126.435 215.281 126.221 215.232L125.463 215.066C125.045 214.971 124.736 214.819 124.536 214.611C124.338 214.403 124.239 214.14 124.239 213.821C124.239 213.557 124.312 213.326 124.46 213.127C124.608 212.929 124.812 212.775 125.072 212.664C125.333 212.551 125.631 212.495 125.967 212.495C126.451 212.495 126.832 212.6 127.11 212.81C127.388 213.018 127.572 213.296 127.661 213.646ZM132.063 213.646L131.273 213.786C131.24 213.685 131.188 213.589 131.116 213.498C131.046 213.406 130.95 213.331 130.83 213.273C130.709 213.215 130.559 213.186 130.378 213.186C130.131 213.186 129.925 213.241 129.76 213.352C129.595 213.461 129.512 213.602 129.512 213.775C129.512 213.924 129.567 214.045 129.678 214.136C129.789 214.227 129.968 214.302 130.215 214.361L130.926 214.524C131.338 214.619 131.645 214.766 131.847 214.964C132.05 215.162 132.151 215.42 132.151 215.737C132.151 216.005 132.073 216.244 131.917 216.454C131.764 216.662 131.549 216.825 131.273 216.944C130.999 217.062 130.681 217.122 130.32 217.122C129.818 217.122 129.409 217.015 129.092 216.801C128.775 216.585 128.581 216.279 128.509 215.883L129.352 215.754C129.404 215.974 129.512 216.14 129.675 216.253C129.839 216.364 130.051 216.419 130.314 216.419C130.6 216.419 130.828 216.36 130.999 216.241C131.17 216.121 131.256 215.974 131.256 215.801C131.256 215.661 131.203 215.543 131.098 215.448C130.995 215.353 130.837 215.281 130.623 215.232L129.865 215.066C129.447 214.971 129.138 214.819 128.938 214.611C128.739 214.403 128.64 214.14 128.64 213.821C128.64 213.557 128.714 213.326 128.862 213.127C129.01 212.929 129.214 212.775 129.474 212.664C129.735 212.551 130.033 212.495 130.369 212.495C130.853 212.495 131.234 212.6 131.512 212.81C131.79 213.018 131.974 213.296 132.063 213.646ZM133.109 217.031V212.553H133.981V217.031H133.109ZM133.549 211.862C133.398 211.862 133.268 211.811 133.159 211.71C133.052 211.607 132.998 211.485 132.998 211.343C132.998 211.199 133.052 211.077 133.159 210.976C133.268 210.873 133.398 210.821 133.549 210.821C133.701 210.821 133.83 210.873 133.937 210.976C134.046 211.077 134.1 211.199 134.1 211.343C134.1 211.485 134.046 211.607 133.937 211.71C133.83 211.811 133.701 211.862 133.549 211.862ZM137.04 217.122C136.62 217.122 136.254 217.025 135.941 216.833C135.628 216.641 135.385 216.371 135.212 216.025C135.039 215.679 134.952 215.275 134.952 214.813C134.952 214.348 135.039 213.942 135.212 213.594C135.385 213.246 135.628 212.976 135.941 212.783C136.254 212.591 136.62 212.495 137.04 212.495C137.46 212.495 137.826 212.591 138.139 212.783C138.452 212.976 138.695 213.246 138.868 213.594C139.041 213.942 139.128 214.348 139.128 214.813C139.128 215.275 139.041 215.679 138.868 216.025C138.695 216.371 138.452 216.641 138.139 216.833C137.826 217.025 137.46 217.122 137.04 217.122ZM137.043 216.39C137.315 216.39 137.54 216.318 137.719 216.174C137.898 216.03 138.03 215.839 138.116 215.6C138.203 215.361 138.247 215.097 138.247 214.81C138.247 214.524 138.203 214.261 138.116 214.022C138.03 213.781 137.898 213.588 137.719 213.442C137.54 213.296 137.315 213.224 137.043 213.224C136.769 213.224 136.541 213.296 136.361 213.442C136.182 213.588 136.049 213.781 135.961 214.022C135.876 214.261 135.833 214.524 135.833 214.81C135.833 215.097 135.876 215.361 135.961 215.6C136.049 215.839 136.182 216.03 136.361 216.174C136.541 216.318 136.769 216.39 137.043 216.39ZM140.972 214.372V217.031H140.101V212.553H140.937V213.282H140.993C141.096 213.045 141.257 212.854 141.477 212.71C141.698 212.567 141.977 212.495 142.313 212.495C142.619 212.495 142.886 212.559 143.115 212.687C143.345 212.813 143.522 213.002 143.649 213.253C143.775 213.503 143.838 213.813 143.838 214.183V217.031H142.967V214.288C142.967 213.963 142.882 213.709 142.713 213.527C142.544 213.342 142.312 213.25 142.016 213.25C141.814 213.25 141.634 213.294 141.477 213.381C141.321 213.468 141.198 213.597 141.106 213.766C141.017 213.933 140.972 214.135 140.972 214.372ZM148.363 213.646L147.573 213.786C147.54 213.685 147.488 213.589 147.416 213.498C147.346 213.406 147.25 213.331 147.13 213.273C147.009 213.215 146.859 213.186 146.678 213.186C146.431 213.186 146.225 213.241 146.06 213.352C145.895 213.461 145.812 213.602 145.812 213.775C145.812 213.924 145.868 214.045 145.978 214.136C146.089 214.227 146.268 214.302 146.515 214.361L147.226 214.524C147.638 214.619 147.945 214.766 148.147 214.964C148.35 215.162 148.451 215.42 148.451 215.737C148.451 216.005 148.373 216.244 148.217 216.454C148.064 216.662 147.849 216.825 147.573 216.944C147.299 217.062 146.981 217.122 146.62 217.122C146.118 217.122 145.709 217.015 145.392 216.801C145.075 216.585 144.881 216.279 144.809 215.883L145.652 215.754C145.704 215.974 145.812 216.14 145.975 216.253C146.139 216.364 146.351 216.419 146.614 216.419C146.9 216.419 147.128 216.36 147.299 216.241C147.47 216.121 147.556 215.974 147.556 215.801C147.556 215.661 147.503 215.543 147.398 215.448C147.295 215.353 147.137 215.281 146.923 215.232L146.165 215.066C145.747 214.971 145.438 214.819 145.238 214.611C145.039 214.403 144.94 214.14 144.94 213.821C144.94 213.557 145.014 213.326 145.162 213.127C145.31 212.929 145.514 212.775 145.774 212.664C146.035 212.551 146.333 212.495 146.669 212.495C147.153 212.495 147.534 212.6 147.812 212.81C148.09 213.018 148.274 213.296 148.363 213.646ZM113.27 227.031V226.378L115.29 224.285C115.506 224.057 115.684 223.858 115.824 223.687C115.965 223.514 116.071 223.35 116.141 223.194C116.211 223.039 116.246 222.874 116.246 222.699C116.246 222.5 116.2 222.329 116.106 222.186C116.013 222.04 115.886 221.928 115.724 221.85C115.563 221.771 115.381 221.731 115.179 221.731C114.965 221.731 114.779 221.775 114.619 221.862C114.46 221.949 114.338 222.073 114.252 222.232C114.167 222.392 114.124 222.578 114.124 222.792H113.264C113.264 222.429 113.347 222.111 113.514 221.839C113.682 221.567 113.911 221.356 114.203 221.206C114.494 221.054 114.825 220.979 115.197 220.979C115.572 220.979 115.902 221.053 116.188 221.203C116.476 221.351 116.7 221.553 116.861 221.81C117.023 222.064 117.103 222.352 117.103 222.673C117.103 222.894 117.062 223.111 116.978 223.323C116.896 223.535 116.754 223.771 116.55 224.031C116.345 224.29 116.062 224.604 115.698 224.973L114.512 226.215V226.259H117.2V227.031H113.27ZM120.383 227.13C119.923 227.128 119.529 227.007 119.203 226.766C118.876 226.525 118.626 226.174 118.453 225.713C118.28 225.253 118.194 224.698 118.194 224.049C118.194 223.401 118.28 222.848 118.453 222.39C118.628 221.931 118.879 221.581 119.206 221.34C119.534 221.099 119.927 220.979 120.383 220.979C120.84 220.979 121.232 221.1 121.558 221.343C121.885 221.584 122.135 221.934 122.308 222.393C122.483 222.849 122.57 223.401 122.57 224.049C122.57 224.7 122.484 225.256 122.311 225.716C122.138 226.175 121.888 226.526 121.561 226.769C121.235 227.01 120.842 227.13 120.383 227.13ZM120.383 226.352C120.788 226.352 121.104 226.155 121.331 225.76C121.56 225.366 121.675 224.795 121.675 224.049C121.675 223.553 121.623 223.134 121.518 222.792C121.415 222.448 121.266 222.188 121.072 222.011C120.879 221.832 120.65 221.742 120.383 221.742C119.981 221.742 119.665 221.941 119.436 222.337C119.207 222.734 119.091 223.304 119.089 224.049C119.089 224.546 119.14 224.967 119.243 225.311C119.348 225.653 119.497 225.913 119.69 226.09C119.882 226.264 120.113 226.352 120.383 226.352ZM123.974 227.087C123.815 227.087 123.678 227.03 123.563 226.918C123.448 226.803 123.391 226.665 123.391 226.504C123.391 226.344 123.448 226.208 123.563 226.095C123.678 225.981 123.815 225.923 123.974 225.923C124.133 225.923 124.27 225.981 124.385 226.095C124.5 226.208 124.557 226.344 124.557 226.504C124.557 226.61 124.53 226.709 124.475 226.798C124.423 226.885 124.353 226.955 124.266 227.008C124.178 227.06 124.081 227.087 123.974 227.087ZM127.588 227.113C127.222 227.113 126.894 227.043 126.602 226.903C126.313 226.761 126.081 226.567 125.908 226.32C125.735 226.073 125.643 225.791 125.631 225.474H126.506C126.527 225.731 126.641 225.942 126.847 226.107C127.053 226.272 127.3 226.355 127.588 226.355C127.817 226.355 128.02 226.302 128.197 226.197C128.376 226.091 128.516 225.944 128.617 225.757C128.72 225.571 128.771 225.358 128.771 225.119C128.771 224.876 128.719 224.659 128.614 224.468C128.509 224.278 128.364 224.128 128.18 224.019C127.997 223.911 127.787 223.855 127.55 223.853C127.369 223.853 127.187 223.884 127.005 223.947C126.822 224.009 126.674 224.09 126.562 224.192L125.736 224.069L126.072 221.06H129.355V221.833H126.821L126.631 223.503H126.666C126.783 223.391 126.938 223.296 127.13 223.221C127.324 223.145 127.532 223.107 127.754 223.107C128.117 223.107 128.441 223.193 128.725 223.366C129.011 223.539 129.235 223.776 129.398 224.075C129.564 224.372 129.645 224.714 129.643 225.101C129.645 225.488 129.558 225.833 129.381 226.136C129.206 226.439 128.963 226.678 128.652 226.853C128.343 227.026 127.988 227.113 127.588 227.113ZM130.79 221.06H131.883L133.784 225.702H133.854L135.755 221.06H136.848V227.031H135.991V222.71H135.936L134.175 227.023H133.463L131.702 222.707H131.647V227.031H130.79V221.06Z" fill="white"/>
</g>
<defs>
<linearGradient id="paint0_linear_180_15022" x1="127.126" y1="10.4199" x2="127.126" y2="91.6934" gradientUnits="userSpaceOnUse">
<stop stop-color="#2F3345"/>
<stop offset="1" stop-color="#414C63"/>
</linearGradient>
<linearGradient id="paint1_linear_180_15022" x1="126.084" y1="108.531" x2="126.084" y2="172.008" gradientUnits="userSpaceOnUse">
<stop stop-color="#363D50"/>
<stop offset="1" stop-color="#4E576D"/>
</linearGradient>
<linearGradient id="paint2_linear_180_15022" x1="124.849" y1="187.543" x2="124.849" y2="239.001" gradientUnits="userSpaceOnUse">
<stop stop-color="#3E495F"/>
<stop offset="1" stop-color="#748098"/>
</linearGradient>
<clipPath id="clip0_180_15022">
<rect width="254.252" height="248" fill="white"/>
</clipPath>
</defs>
</svg>
